<svg width="1200" height="900" viewBox="0 0 1200 900" fill="none" xmlns="http://www.w3.org/2000/svg">
  <defs>
    <linearGradient id="bg" x1="0" y1="0" x2="1200" y2="900" gradientUnits="userSpaceOnUse">
      <stop offset="0" stop-color="#0B1220"/>
      <stop offset="1" stop-color="#111A2B"/>
    </linearGradient>
    <linearGradient id="card" x1="140" y1="120" x2="980" y2="780" gradientUnits="userSpaceOnUse">
      <stop offset="0" stop-color="#182439"/>
      <stop offset="1" stop-color="#10192B"/>
    </linearGradient>
    <linearGradient id="accent" x1="0" y1="0" x2="1" y2="1">
      <stop offset="0" stop-color="#38BDF8"/>
      <stop offset="1" stop-color="#22D3EE"/>
    </linearGradient>
    <filter id="soft" x="0" y="0" width="1200" height="900" filterUnits="userSpaceOnUse" color-interpolation-filters="sRGB">
      <feGaussianBlur stdDeviation="40"/>
    </filter>
  </defs>

  <rect width="1200" height="900" fill="url(#bg)"/>

  <g opacity="0.45" filter="url(#soft)">
    <circle cx="180" cy="160" r="120" fill="#22D3EE"/>
    <circle cx="1030" cy="760" r="160" fill="#38BDF8"/>
  </g>

  <rect x="130" y="100" width="940" height="700" rx="36" fill="url(#card)" stroke="#24324B" stroke-width="2"/>

  <rect x="170" y="140" width="860" height="56" rx="14" fill="#0D1628"/>
  <circle cx="210" cy="168" r="8" fill="#334155"/>
  <circle cx="236" cy="168" r="8" fill="#334155"/>
  <circle cx="262" cy="168" r="8" fill="#334155"/>
  <rect x="310" y="156" width="300" height="24" rx="12" fill="#1E293B"/>

  <rect x="170" y="230" width="250" height="530" rx="20" fill="#0D1628" stroke="#24324B"/>
  <rect x="200" y="270" width="190" height="12" rx="6" fill="#334155"/>
  <rect x="200" y="300" width="150" height="12" rx="6" fill="#334155"/>
  <rect x="200" y="360" width="180" height="44" rx="12" fill="#1E293B"/>
  <rect x="200" y="420" width="180" height="44" rx="12" fill="#1E293B"/>
  <rect x="200" y="480" width="180" height="44" rx="12" fill="#1E293B"/>

  <rect x="450" y="230" width="580" height="240" rx="20" fill="#0D1628" stroke="#24324B"/>
  <rect x="490" y="270" width="280" height="16" rx="8" fill="#334155"/>
  <rect x="490" y="305" width="460" height="12" rx="6" fill="#334155"/>
  <rect x="490" y="335" width="420" height="12" rx="6" fill="#334155"/>
  <rect x="490" y="365" width="390" height="12" rx="6" fill="#334155"/>
  <rect x="490" y="400" width="180" height="36" rx="10" fill="url(#accent)"/>

  <rect x="450" y="500" width="270" height="260" rx="20" fill="#0D1628" stroke="#24324B"/>
  <rect x="490" y="545" width="190" height="12" rx="6" fill="#334155"/>
  <rect x="490" y="575" width="150" height="12" rx="6" fill="#334155"/>
  <circle cx="585" cy="670" r="68" fill="#111827" stroke="#2D3B57" stroke-width="12"/>
  <path d="M585 602 A68 68 0 0 1 649 670" stroke="url(#accent)" stroke-width="12" stroke-linecap="round"/>

  <rect x="760" y="500" width="270" height="260" rx="20" fill="#0D1628" stroke="#24324B"/>
  <rect x="800" y="545" width="160" height="12" rx="6" fill="#334155"/>
  <rect x="800" y="575" width="120" height="12" rx="6" fill="#334155"/>
  <rect x="800" y="620" width="190" height="16" rx="8" fill="#1E293B"/>
  <rect x="800" y="650" width="170" height="16" rx="8" fill="#1E293B"/>
  <rect x="800" y="680" width="140" height="16" rx="8" fill="#1E293B"/>

  <rect x="520" y="80" width="230" height="54" rx="27" fill="#0E172A" stroke="#24324B"/>
  <text x="548" y="114" font-family="Outfit, Arial, sans-serif" font-size="20" fill="#A5F3FC">UI/UX Concept</text>
</svg>